<svg xmlns="http://www.w3.org/2000/svg" version="1.1" xmlns:xlink="http://www.w3.org/1999/xlink" width="512" height="512" x="0" y="0" viewBox="0 0 1000 1000" style="enable-background:new 0 0 512 512" xml:space="preserve" class=""><g><path fill="#e7176c" d="M500 900a399 399 0 1 1 155.72-31.47A397.55 397.55 0 0 1 500 900z" opacity="1" data-original="#ffc400" class=""></path><circle cx="500" cy="500" r="321.76" fill="#ff6699" opacity="1" data-original="#fdd835" class=""></circle><g fill="#ffa000"><path d="M493.17 674.85q-4.34 0-8.71-.25c-5.73-.31-54.17-4-85.61-41.72a30 30 0 1 1 46.07-38.44c15 18 42.49 20.23 42.76 20.25h.12c34.82 2 67.35-16.66 69.58-39.89.76-7.92-2-15.59-8.2-22.82-10.79-12.56-29.72-20.78-50.66-22h-.23c-37.55-2.13-71.45-17.76-93-42.87-16.75-19.52-24.7-43.52-22.39-67.61 2.74-28.51 19-54 45.8-71.72 24.45-16.19 55.29-24.13 86.85-22.35 5.77.31 54.15 4.05 85.59 41.71a30 30 0 1 1-46 38.46c-14.9-17.85-41.85-20.18-43-20.27-34.79-1.94-67.25 16.71-69.49 39.91-.76 7.9 2 15.57 8.2 22.79 10.78 12.57 29.72 20.8 50.67 22h.21c37.55 2.12 71.44 17.74 93 42.85 16.76 19.52 24.71 43.54 22.4 67.63-2.73 28.5-19 54-45.79 71.72-22.22 14.77-49.69 22.62-78.17 22.62z" fill="#ffffff" opacity="1" data-original="#ffa000" class=""></path><path d="M500 385.58a30 30 0 0 1-30-30v-44.41a30 30 0 0 1 60 0v44.41a30 30 0 0 1-30 30zM500 718.83a30 30 0 0 1-30-30v-44.41a30 30 0 1 1 60 0v44.41a30 30 0 0 1-30 30z" fill="#ffffff" opacity="1" data-original="#ffa000" class=""></path></g></g></svg>