<svg xmlns="http://www.w3.org/2000/svg" version="1.1" xmlns:xlink="http://www.w3.org/1999/xlink" width="512" height="512" x="0" y="0" viewBox="0 0 511.999 511.999" style="enable-background:new 0 0 512 512" xml:space="preserve" class=""><g><path d="M266.635 273.728v38.076c9.66-2.273 17.334-7.672 17.334-17.902-.001-9.377-7.104-15.345-17.334-20.174zM232.537 203.259c0 8.24 7.389 13.354 18.185 17.902v-33.813c-12.786 2.555-18.185 9.091-18.185 15.911z" fill="#ff6699" opacity="1" data-original="#000000" class=""></path><path d="m489.947 202.804-25.681-25.682a17.748 17.748 0 0 1-5.232-12.63v-36.319c0-41.483-33.749-75.232-75.232-75.232h-36.32a17.743 17.743 0 0 1-12.629-5.231l-25.682-25.683c-29.334-29.333-77.061-29.331-106.395 0l-25.681 25.682a17.746 17.746 0 0 1-12.63 5.231h-36.319c-41.483 0-75.232 33.749-75.232 75.232v36.319c0 4.771-1.858 9.256-5.232 12.63L22 202.803c-29.334 29.333-29.334 77.061 0 106.395l25.682 25.682a17.745 17.745 0 0 1 5.231 12.629v36.319c0 41.483 33.749 75.232 75.232 75.232h36.319c4.771 0 9.257 1.858 12.629 5.231l25.682 25.682c29.334 29.335 77.065 29.33 106.395 0l25.682-25.682a17.745 17.745 0 0 1 12.629-5.231h36.32c41.483 0 75.232-33.749 75.232-75.232v-36.319a17.75 17.75 0 0 1 5.232-12.63l25.681-25.681c29.402-29.401 29.406-76.99.001-106.394zM269.478 351.3v8.24c0 3.978-5.399 7.672-10.798 7.672-6.251 0-10.798-3.694-10.798-7.672v-7.104c-34.098-1.137-61.945-18.754-61.945-36.939 0-9.662 8.524-23.868 19.322-23.868 11.934 0 21.595 16.766 42.622 20.459v-46.032c-26.141-9.946-56.83-22.164-56.83-58.536 0-36.087 26.711-53.42 56.83-57.682v-7.957c0-3.978 4.546-7.672 10.798-7.672 5.399 0 10.798 3.694 10.798 7.672v7.104c17.617.569 50.862 5.114 50.862 24.721 0 7.672-5.114 23.3-17.617 23.3-9.377 0-14.776-9.093-33.245-10.514v41.485c25.857 9.662 55.978 23.016 55.978 61.375-.001 35.238-22.733 56.549-55.977 61.948z" fill="#ff6699" opacity="1" data-original="#000000" class=""></path></g></svg>