<svg xmlns="http://www.w3.org/2000/svg" version="1.1" xmlns:xlink="http://www.w3.org/1999/xlink" width="512" height="512" x="0" y="0" viewBox="0 0 24 24" style="enable-background:new 0 0 512 512" xml:space="preserve" class=""><g><path d="M11.3 8.1V11l-1-.3c-.5-.2-.8-.4-.8-1.2 0-.7.5-1.3 1.2-1.3h.6zM14.6 14.6c0 .7-.5 1.3-1.2 1.3h-.6V13l1 .3c.5.3.8.5.8 1.3z" fill="#ff6699" opacity="1" data-original="#000000"></path><path d="M16.2 2H7.8C4.2 2 2 4.2 2 7.8v8.4C2 19.8 4.2 22 7.8 22h8.4c3.6 0 5.8-2.2 5.8-5.8V7.8C22 4.2 19.8 2 16.2 2zm-1.9 10c.8.3 1.8.8 1.8 2.6 0 1.5-1.2 2.8-2.7 2.8h-.6v.6c0 .4-.3.8-.8.8s-.8-.3-.8-.8v-.6h-.4c-1.6 0-3-1.4-3-3.1 0-.4.3-.8.8-.8.4 0 .8.3.8.8 0 .9.7 1.6 1.5 1.6h.4v-3.4L9.7 12c-.7-.3-1.8-.8-1.8-2.6 0-1.5 1.2-2.8 2.7-2.8h.6V6c0-.4.3-.8.8-.8s.8.3.8.8v.6h.4c1.6 0 3 1.4 3 3.1 0 .4-.3.8-.8.8-.4 0-.8-.3-.8-.8 0-.9-.7-1.6-1.5-1.6h-.4v3.4z" fill="#ff6699" opacity="1" data-original="#000000"></path></g></svg>