<svg xmlns="http://www.w3.org/2000/svg" version="1.1" xmlns:xlink="http://www.w3.org/1999/xlink" width="512" height="512" x="0" y="0" viewBox="0 0 512 512" style="enable-background:new 0 0 512 512" xml:space="preserve" class=""><g><path d="M0 173.507C0 95.972 62.854 33.12 140.387 33.12c34.388 0 65.865 12.383 90.262 32.918 14.664 12.343 36.039 12.343 50.702 0 24.396-20.536 55.873-32.918 90.262-32.918C449.146 33.12 512 95.972 512 173.507v-4.129c0 136.147-165.574 258.941-230.406 301.804a46.394 46.394 0 0 1-51.189 0C165.574 428.319 0 305.525 0 169.378" style="" fill="#ff6699" data-original="#ff6464" opacity="1" class=""></path><path d="M0 173.506c0-.594.082-1.167.089-1.759-.012-.791-.089-1.577-.089-2.37v4.129zM114.822 182.728c-.006.639-.063 1.258-.063 1.899v-4.457c0 .856.055 1.704.063 2.558.544-66.886 29.431-123.321 69.206-142.541-13.749-4.506-28.381-7.068-43.641-7.068-76.94 0-139.346 61.913-140.298 138.628 1.909 135.199 165.863 256.821 230.317 299.434 6.614 4.372 14.069 6.766 21.643 7.414-53.184-59.763-136.089-172.578-137.227-295.867z" style="" fill="#e7176c" data-original="#d2555a" class="" opacity="1"></path><circle cx="449.534" cy="153.942" r="32.044" style="" fill="#ffccdc" data-original="#ff8b8b" class="" opacity="1"></circle><circle cx="408.441" cy="92.844" r="20.028" style="" fill="#ffa1bf" data-original="#ffc1c1" class="" opacity="1"></circle></g></svg>