<svg xmlns="http://www.w3.org/2000/svg" version="1.1" xmlns:xlink="http://www.w3.org/1999/xlink" width="512" height="512" x="0" y="0" viewBox="0 0 512 512" style="enable-background:new 0 0 512 512" xml:space="preserve" class=""><g><g fill-rule="evenodd"><path fill="#ff6699" d="M83.147 475.471V272.28l-30.6 30.572L0 250.306l69.1-69.13a46.282 46.282 0 0 1 33.865-14.018h153.413a46.282 46.282 0 0 1 33.865 14.018l69.1 69.13-52.543 52.546-30.575-30.572v203.191z" opacity="1" data-original="#69a7ff" class=""></path><path fill="#e7176c" d="M240.407 167.158v.234a60.734 60.734 0 0 1-121.442 0l-.029-.234z" opacity="1" data-original="#5f96e6" class=""></path><path fill="#ffffff" d="M131.264 167.158h96.816a48.418 48.418 0 0 1-96.816 0z" opacity="1" data-original="#d5e3f2" class=""></path><path fill="#ff6699" d="M484.371 295.916a10.971 10.971 0 0 1 10.958 9.792l16.553 149.362a18.314 18.314 0 0 1-18.273 20.4h-142.28a18.3 18.3 0 0 1-18.273-20.4l16.524-149.362a11.02 11.02 0 0 1 10.988-9.792z" opacity="1" data-original="#ff3d50" class=""></path><path fill="#ff6699" d="m366.688 105.169 107.948 62.339-12.706 22.033a25.5 25.5 0 0 1-34.769 9.3l-143.038-82.568z" opacity="1" data-original="#69a7ff" class=""></path><path fill="#ff6699" d="M345.442 40a101.5 101.5 0 0 1 75.22 96.32H217.7A101.488 101.488 0 0 1 345.442 40z" opacity="1" data-original="#ffd23b" class=""></path><path fill="#ff6699" d="M366.892 48.455a101.606 101.606 0 0 1 53.77 87.869H319.183a79.365 79.365 0 0 1 47.709-87.869z" opacity="1" data-original="#ff3d50" class=""></path><path fill="#ffffff" d="m448.844 426.305-26.375-19.264-26.404 19.264 10.171-31.067-26.463-19.148 32.641.059 10.055-31.068 10.025 31.068 32.671-.059-26.463 19.148z" opacity="1" data-original="#d5e3f2" class=""></path><path fill="#ff6699" d="m212.371 371.602-32.699-23.839-32.7 23.839 12.59-38.441-32.786-23.722 40.48.058 12.416-38.499 12.444 38.499 40.452-.058-32.787 23.722z" opacity="1" data-original="#ffd23b" class=""></path></g><path fill="#ff6699" d="M469.012 325.759a7.2 7.2 0 1 1-14.4 0v-42.521a32.161 32.161 0 0 0-64.321 0v42.521a7.184 7.184 0 1 1-14.368 0v-42.521a46.543 46.543 0 0 1 93.086 0z" opacity="1" data-original="#ffd23b" class=""></path><path fill="#e7176c" fill-rule="evenodd" d="M100.954 475.471V254.473L83.147 272.28v203.191zM0 250.306l52.546 52.546 8.918-8.889-43.657-43.657 69.129-69.13a46.217 46.217 0 0 1 33.836-14.018h-17.807A46.282 46.282 0 0 0 69.1 181.176z" opacity="1" data-original="#5f96e6" class=""></path><path fill="#e7176c" fill-rule="evenodd" d="M304.932 128.281h-73.821a101.643 101.643 0 0 1 42.724-81.02 101.3 101.3 0 0 0-52.692 64.524 102.336 102.336 0 0 0-3.439 24.539h101.479a79.842 79.842 0 0 1-1.078-8.043z" opacity="1" data-original="#e8bd31" class=""></path><path fill="#e7176c" fill-rule="evenodd" d="M318.105 128.281a79.842 79.842 0 0 0 1.078 8.043h101.479q-.043-4.022-.437-8.043z" opacity="1" data-original="#e82e41" class=""></path><path fill="#e7176c" fill-rule="evenodd" d="m422.7 188.084-89.646-51.76h-14.162l108.269 62.514a25.5 25.5 0 0 0 34.769-9.3l12.706-22.033-7.985-4.634-9.18 15.913a25.525 25.525 0 0 1-34.769 9.3z" opacity="1" data-original="#5f96e6" class=""></path><path fill="#e7176c" fill-rule="evenodd" d="m349.376 440.353 16-144.437h-4.808a11.02 11.02 0 0 0-10.988 9.792L333.056 455.07a18.3 18.3 0 0 0 18.273 20.4h142.28a18.306 18.306 0 0 0 18.04-14.776 16.633 16.633 0 0 1-1.719.088H367.65a18.324 18.324 0 0 1-18.274-20.43z" opacity="1" data-original="#e82e41" class=""></path></g></svg>