<svg xmlns="http://www.w3.org/2000/svg" version="1.1" xmlns:xlink="http://www.w3.org/1999/xlink" width="512" height="512" x="0" y="0" viewBox="0 0 512 512" style="enable-background:new 0 0 512 512" xml:space="preserve" class=""><g><path fill="#e7176c" d="M353.28 209.784a7.61 7.61 0 0 1-7.611-7.612v-97.28c0-49.444-40.225-89.669-89.669-89.669s-89.669 40.225-89.669 89.669v97.28a7.612 7.612 0 1 1-15.223 0v-97.28C151.108 47.055 198.163 0 256 0s104.892 47.055 104.892 104.892v97.28a7.61 7.61 0 0 1-7.612 7.612z" opacity="1" data-original="#eef5f6" class=""></path><path fill="#ff6699" d="M393.16 147.027H108.691c-7.917 0-14.512 6.068-15.17 13.957L65.615 495.512C64.874 504.387 71.878 512 80.785 512h340.281c8.906 0 15.911-7.613 15.17-16.488L408.33 160.985c-.658-7.89-7.253-13.958-15.17-13.958z" opacity="1" data-original="#62dbfb" class=""></path><path fill="#e7176c" d="m446.385 495.511-27.906-334.527c-.658-7.89-7.254-13.957-15.171-13.957h-40.595c7.917 0 14.512 6.068 15.17 13.957l27.906 334.527c.74 8.876-6.263 16.489-15.17 16.489h40.595c8.908 0 15.912-7.613 15.171-16.489z" opacity="1" data-original="#01c0fa" class=""></path><path fill="#e7176c" d="M344.789 469.499H167.212c-4.204 0-7.611-3.407-7.611-7.612s3.408-7.611 7.611-7.611h177.577a7.611 7.611 0 1 1 0 15.223z" opacity="1" data-original="#eef5f6" class=""></path><path fill="#ffffff" d="M194.062 265.118a7.587 7.587 0 0 1-5.382-2.229l-12.803-12.803a7.612 7.612 0 0 1 10.764-10.765l12.803 12.803a7.61 7.61 0 0 1 0 10.764 7.584 7.584 0 0 1-5.382 2.23zM317.939 265.118a7.613 7.613 0 0 1-5.383-12.994l12.803-12.803a7.613 7.613 0 0 1 10.765 10.765l-12.803 12.803a7.59 7.59 0 0 1-5.382 2.229zM150.813 389.049a7.584 7.584 0 0 1-5.382-2.23 7.61 7.61 0 0 1 0-10.764l12.803-12.803a7.612 7.612 0 0 1 10.764 10.765l-12.803 12.803a7.592 7.592 0 0 1-5.382 2.229zM361.187 389.049a7.593 7.593 0 0 1-5.383-2.229l-12.803-12.803a7.613 7.613 0 0 1 10.765-10.765l12.803 12.803a7.613 7.613 0 0 1-5.382 12.994zM252.516 390.697l-43.273 22.75c-5.493 2.888-11.914-1.777-10.865-7.893l8.264-48.185a7.489 7.489 0 0 0-2.153-6.628l-35.008-34.125c-4.444-4.332-1.992-11.879 4.15-12.772l48.381-7.03a7.487 7.487 0 0 0 5.638-4.096l21.636-43.84c2.747-5.565 10.683-5.565 13.429 0l21.636 43.84a7.487 7.487 0 0 0 5.638 4.096l48.38 7.03c6.142.893 8.594 8.44 4.15 12.772l-35.008 34.125a7.49 7.49 0 0 0-2.154 6.628l8.264 48.185c1.049 6.117-5.371 10.781-10.864 7.893l-43.273-22.75a7.485 7.485 0 0 0-6.968 0z" opacity="1" data-original="#ffe177" class=""></path></g></svg>