<svg xmlns="http://www.w3.org/2000/svg" version="1.1" xmlns:xlink="http://www.w3.org/1999/xlink" width="512" height="512" x="0" y="0" viewBox="0 0 512 512" style="enable-background:new 0 0 512 512" xml:space="preserve" class=""><g><path fill="#ca245f" d="M512 256c0 53.019-16.118 102.274-43.721 143.132-46.005 68.096-123.914 34.9-212.279 34.9-87.031 0-163.918 34.539-210.173-31.83C16.94 360.752 0 310.354 0 256 0 114.615 114.615 0 256 0s256 114.615 256 256z" opacity="1" data-original="#ca245f" class=""></path><path fill="#b8bede" d="M466.17 52.61V402.2a256.994 256.994 0 0 1-18.74 23.773c-46.891 52.775-115.279 26.015-191.43 26.015-75.475 0-143.324 27.348-190.175-24.614a257.145 257.145 0 0 1-19.995-25.175V52.61c0-20.87 16.92-37.78 37.78-37.78h344.78c20.86 0 37.78 16.91 37.78 37.78z" opacity="1" data-original="#b8bede" class=""></path><circle cx="233.387" cy="191.527" r="138.003" fill="#a8acd3" opacity="1" data-original="#a8acd3" class=""></circle><path fill="#d6d8e8" d="M446.17 109.89v317.48c-6.3 6.99-12.97 13.63-20 19.88-45.22 40.28-104.84 4.739-170.17 4.739S131.05 487.53 85.83 447.25c-7.03-6.25-13.7-12.89-20-19.88V109.89c0-9.8 7.98-17.77 17.78-17.77h344.78c9.8 0 17.78 7.97 17.78 17.77z" opacity="1" data-original="#d6d8e8" class=""></path><path fill="#b8bede" d="M330.97 289.11C277.08 343 189.7 343 135.8 289.11c-53.89-53.89-53.89-141.27 0-195.17.61-.61 1.23-1.22 1.86-1.82h191.45c.63.6 1.25 1.21 1.86 1.82 53.89 53.9 53.89 141.28 0 195.17z" opacity="1" data-original="#b8bede" class=""></path><path fill="#ff6699" d="M426.17 141.47v305.78C380.95 487.53 321.33 512 256 512s-124.95-24.47-170.17-64.75V141.47c0-16.21 13.14-29.35 29.35-29.35h281.64c16.21 0 29.35 13.14 29.35 29.35z" opacity="1" data-original="#5e54ac" class=""></path><path fill="#c30d5b" d="M330.97 289.11C277.08 343 189.7 343 135.8 289.11c-48.18-48.18-53.29-123.13-15.3-176.99h225.78c37.98 53.86 32.87 128.81-15.31 176.99z" opacity="1" data-original="#453d81" class=""></path><g fill="#a8acd3"><circle cx="84.456" cy="53.408" r="18.622" fill="#a8acd3" opacity="1" data-original="#a8acd3" class=""></circle><circle cx="134.803" cy="53.408" r="18.622" fill="#a8acd3" opacity="1" data-original="#a8acd3" class=""></circle><circle cx="185.15" cy="54.797" r="18.622" fill="#a8acd3" opacity="1" data-original="#a8acd3" class=""></circle></g><circle cx="256" cy="191.527" r="138.003" fill="#efc64c" opacity="1" data-original="#efc64c" class=""></circle><path fill="#e3a12f" d="M359.95 282.297c-2.026 2.331-4.15 4.6-6.364 6.814-53.891 53.891-141.268 53.9-195.169 0-53.891-53.891-53.891-141.277 0-195.169a132.97 132.97 0 0 1 6.814-6.364c-47.446 54.198-45.322 136.687 6.355 188.364 51.686 51.686 134.166 53.801 188.364 6.355z" opacity="1" data-original="#e3a12f" class=""></path><circle cx="256" cy="191.527" r="100.361" fill="#e3a12f" opacity="1" data-original="#e3a12f" class=""></circle><path fill="#de8635" d="M326.966 120.562c39.192 39.192 39.192 102.742 0 141.934a107.814 107.814 0 0 1-5.581 5.185c33.917-39.426 32.189-98.962-5.194-136.345s-96.918-39.111-136.345-5.194a107.814 107.814 0 0 1 5.185-5.581c39.193-39.191 102.742-39.191 141.935.001z" opacity="1" data-original="#de8635" class=""></path><path fill="#de8635" d="M247.98 181.431c-9.44 4.509-20.053 10.154-27.666 10.154-1.026 0-4.171-1.38-5.873-3.873-.904-1.323-3.65-6.018-1.046-10.867 5.336-9.931 14.155-11.019 15.143-11.108a12.869 12.869 0 0 0 8.33-4.141l9.971-9.971-5.626-5.626-1.908 1.908c-2.11-5.097-7.352-8.458-13.134-7.927-5.475.503-11.864 2.413-18.014 6.091l-2.126-2.126-8.432-9.858-9.858 9.858c-5.051 5.051-5.05 13.239 0 18.29l2.704 2.704c-6.127 11.704-5.135 25.982 2.635 37.36 7.25 10.617 18.874 16.352 30.337 14.966 11.243-1.36 23.808-6.808 35.712-12.494 9.084-4.339 14.415.592 16.784 3.919 3.983 5.593 5.129 14.797-1.769 21.786-4.567 4.639-15.163 4.387-15.163 4.387l-10.026 10.026c-3.107 2.985-4.663 7.445-3.716 11.972 1.462 6.991 8.314 11.474 15.305 10.014 10.01-2.093 16.326-4.892 22.359-9.48l2.391 2.391c5.051 5.051 13.239 5.051 18.29 0l9.858-9.858-13.208-11.781c7.893-15.182 5.099-32.733-3.254-44.462-11.333-15.915-31.025-20.84-49-12.254z" opacity="1" data-original="#de8635" class=""></path><path fill="#efc64c" d="M257.838 171.573c-9.44 4.509-20.053 10.154-27.666 10.154-1.026 0-4.171-1.38-5.873-3.873-.904-1.323-3.65-6.017-1.046-10.867 5.336-9.931 14.155-11.019 15.143-11.108 7.112-.654 12.349-6.95 11.695-14.063s-6.95-12.349-14.063-11.695c-5.475.503-11.864 2.412-18.014 6.091l-2.126-2.126c-5.05-5.05-13.239-5.051-18.29 0s-5.051 13.239 0 18.29l2.704 2.704c-6.127 11.704-5.134 25.982 2.636 37.36 7.25 10.617 18.874 16.352 30.336 14.966 11.243-1.36 23.808-6.808 35.712-12.494 9.084-4.338 14.414.592 16.783 3.919 3.983 5.593 5.128 14.797-1.769 21.786-7.279 7.393-9.729 9.166-18.892 11.079-6.993 1.462-11.476 8.314-10.013 15.306 1.462 6.991 8.314 11.474 15.305 10.013 10.01-2.093 16.326-4.892 22.358-9.479l2.392 2.392c5.051 5.051 13.239 5.051 18.29 0s5.051-13.239 0-18.29l-3.35-3.35c7.893-15.182 5.099-32.734-3.253-44.462-11.333-15.915-31.024-20.839-48.999-12.253z" opacity="1" data-original="#efc64c" class=""></path><path fill="#ffa1bf" d="M391.24 394.709c0 6.06-2 11.65-5.37 16.15-.78 1.03-1.62 2-2.52 2.9a26.868 26.868 0 0 1-19.05 7.89H146.6c-8.82 0-16.65-4.24-21.57-10.79a26.85 26.85 0 0 1-5.37-16.15c0-7.44 3.02-14.17 7.89-19.04a26.826 26.826 0 0 1 19.05-7.89h217.7c14.88 0 26.94 12.061 26.94 26.93z" opacity="1" data-original="#2e4f5f" class=""></path><path fill="#ffa1bf" d="M385.87 410.86c-.78 1.03-1.62 2-2.52 2.9a26.868 26.868 0 0 1-19.05 7.89H146.6c-8.82 0-16.65-4.24-21.57-10.79.77-1.03 1.61-2 2.52-2.91a26.826 26.826 0 0 1 19.05-7.89h217.7c8.83-.001 16.66 4.239 21.57 10.8z" opacity="1" data-original="#1f3645" class=""></path></g></svg>