<svg xmlns="http://www.w3.org/2000/svg" version="1.1" xmlns:xlink="http://www.w3.org/1999/xlink" width="512" height="512" x="0" y="0" viewBox="0 0 48 48" style="enable-background:new 0 0 512 512" xml:space="preserve" class=""><g><path fill="#ff6699" d="M41 23H7a1 1 0 0 0-1 1v18a3 3 0 0 0 3 3h30a3 3 0 0 0 3-3V24a1 1 0 0 0-1-1z" opacity="1" data-original="#ffc127" class=""></path><g fill="#ee4d2d"><rect width="42" height="11" x="3" y="14" rx="3" fill="#e7176c" opacity="1" data-original="#ee4d2d" class=""></rect><path d="M29.419 15.992c-2.029 0-4.257-.718-5.284-2.491-.985-1.7-.748-4.221.615-6.581C26.169 4.465 28.332 3 30.539 3h.01A6.714 6.714 0 0 1 37 9.455c-.007 3.535-3.249 5.956-6.3 6.439a8.221 8.221 0 0 1-1.281.098zM30.539 5c-1.747 0-3.239 1.508-4.057 2.92-.976 1.69-1.224 3.53-.617 4.579.71 1.224 2.856 1.685 4.526 1.42 1.911-.3 4.6-1.89 4.609-4.468A4.76 4.76 0 0 0 30.545 5z" fill="#e7176c" opacity="1" data-original="#ee4d2d" class=""></path><path d="M18.538 15.947a8.816 8.816 0 0 1-1.671-.153c-2.491-.487-6.2-2.59-6.215-6.385A6.76 6.76 0 0 1 17.036 3c2.288-.021 4.544 1.422 6.062 3.944 1.419 2.361 1.715 4.869.774 6.545-1.041 1.857-3.372 2.458-5.334 2.458zM12.652 9.4c.008 2.572 2.826 4.081 4.6 4.428 1.789.352 4.166-.053 4.876-1.32.563-1 .257-2.869-.745-4.536-.881-1.466-2.5-3.053-4.3-2.975a4.8 4.8 0 0 0-4.431 4.4z" fill="#e7176c" opacity="1" data-original="#ee4d2d" class=""></path></g><path fill="#ffffff" d="M19.984 40.734a1 1 0 0 1-.818-1.573L27.2 27.692a1 1 0 1 1 1.639 1.147l-8.034 11.469a1 1 0 0 1-.821.426zM19.5 34a3.5 3.5 0 1 1 3.5-3.5 3.5 3.5 0 0 1-3.5 3.5zm0-5a1.5 1.5 0 1 0 1.5 1.5 1.5 1.5 0 0 0-1.5-1.5zM28.5 41a3.5 3.5 0 1 1 3.5-3.5 3.5 3.5 0 0 1-3.5 3.5zm0-5a1.5 1.5 0 1 0 1.5 1.5 1.5 1.5 0 0 0-1.5-1.5z" opacity="1" data-original="#ffffff" class=""></path></g></svg>