<svg xmlns="http://www.w3.org/2000/svg" version="1.1" xmlns:xlink="http://www.w3.org/1999/xlink" width="512" height="512" x="0" y="0" viewBox="0 0 512 512" style="enable-background:new 0 0 512 512" xml:space="preserve" class=""><g><path fill="#ff6699" d="M485.885 272.533c-6.81-16.41-3.276-40.208-15.649-52.59-12.393-12.373-36.18-8.85-52.59-15.66-15.83-6.556-30.063-26.104-48.264-26.104-10.782 0-20.156 6.839-29.288 13.794h-.001L203.687 55.58l-72.473 16.617C118.45 31.819 83.982.512 55.094 12.188c-25.167 10.178-32.45 48.872-16.606 88.07.424 1.051.87 2.098 1.327 3.143a43.568 43.568 0 0 0-7.952 16.863L0 259.267l236.138 236.148c9.169 9.158 24.034 9.158 33.203 0l56.053-56.064c14.175 7.86 27.423 24.044 43.988 24.044 18.213 0 32.43-19.553 48.264-26.115 16.41-6.81 40.197-3.286 52.59-15.659 12.373-12.383 8.84-36.18 15.649-52.58C492.447 353.197 512 339 512 320.797c0-18.234-19.553-32.43-26.115-48.264zM60.884 26.518c17.598-7.13 43.957 15.705 55.217 49.14L64.685 87.441a43.545 43.545 0 0 0-12.64 5.08h-.001c-10.654-27.524-8.205-59.108 8.84-66.004zm56.711 97.98c-8.48 22.133-30.538 16.69-47.048-1.38 13.267-14.625 35.509-13.249 47.048 1.38zm-54.26 13.31c9.523 9.156 22.396 16.668 35.748 16.668 9.895 0 18.677-4.133 25.105-11.332.103 7.984-2.894 15.999-8.983 22.087-11.991 11.992-31.43 11.992-43.422 0-7.458-7.458-10.281-17.79-8.447-27.423z" opacity="1" data-original="#ee9d2b" class=""></path><path fill="#e7176c" d="M512 320.797c0 18.204-19.553 32.4-26.115 48.244-6.81 16.4-3.276 40.197-15.649 52.58-12.393 12.373-36.18 8.85-52.59 15.659-15.834 6.562-30.05 26.115-48.264 26.115-16.566 0-29.814-16.184-43.989-24.045a40.384 40.384 0 0 0-4.255-2.07c-16.42-6.81-40.208-3.286-52.59-15.659-5.203-5.212-7.603-12.455-9.128-20.315-2.101-10.796-2.575-22.767-6.52-32.265-6.68-15.894-26.116-30.08-26.116-48.244 0-18.234 19.543-32.43 26.115-48.264 6.81-16.41 3.276-40.208 15.649-52.59 4.502-4.502 10.518-6.892 17.132-8.448 11.579-2.73 25.012-2.874 35.458-7.211 6.47-2.679 12.661-7.52 18.956-12.31 9.132-6.956 18.506-13.795 29.288-13.795 18.2 0 32.434 19.548 48.264 26.105 16.41 6.81 40.197 3.286 52.59 15.659 12.373 12.382 8.84 36.18 15.649 52.59 6.562 15.834 26.115 30.03 26.115 48.264z" opacity="1" data-original="#f44343" class=""></path><path fill="#e7176c" d="M481.105 390.305c-1.68 11.847-3.286 23.726-10.869 31.318-12.393 12.372-36.18 8.85-52.59 15.659-15.834 6.562-30.05 26.115-48.264 26.115-16.566 0-29.814-16.184-43.989-24.045a40.386 40.386 0 0 0-4.255-2.07c-16.42-6.81-40.208-3.287-52.59-15.66-5.203-5.212-7.603-12.454-9.128-20.314-2.101-10.797-2.575-22.767-6.52-32.266-6.676-15.895-26.116-30.08-26.116-48.243 0-18.234 19.543-32.43 26.115-48.264 6.81-16.41 3.276-40.208 15.649-52.59 4.502-4.503 10.518-6.893 17.132-8.448 3.8-.896 7.808-1.514 11.836-2.091-1.06 7.468-2.153 14.927-4.78 21.273-6.572 15.834-26.115 30.03-26.115 48.264 0 18.162 19.43 32.348 26.115 48.243 3.946 9.499 4.42 21.47 6.521 32.266 1.525 7.86 3.925 15.102 9.128 20.315 12.382 12.372 36.17 8.849 52.59 15.658a40.341 40.341 0 0 1 4.255 2.071c14.175 7.86 27.424 24.044 43.989 24.044 18.213 0 32.43-19.552 48.264-26.115 7.005-2.905 15.37-3.925 23.622-5.12z" opacity="1" data-original="#db2c2c" class=""></path><path fill="#d6e0eb" d="M321.292 310.491c-8.601 0-16.688-3.349-22.77-9.432-6.083-6.082-9.432-14.168-9.432-22.77s3.35-16.689 9.432-22.771c6.082-6.083 14.169-9.432 22.77-9.432 8.602 0 16.69 3.349 22.771 9.433v-.001c6.083 6.082 9.432 14.169 9.432 22.77 0 8.603-3.35 16.69-9.432 22.772-6.082 6.082-14.169 9.431-22.77 9.431zm0-48.952a16.64 16.64 0 0 0-11.844 4.905 16.64 16.64 0 0 0-4.906 11.844c0 4.475 1.742 8.681 4.906 11.844a16.636 16.636 0 0 0 11.844 4.907 16.64 16.64 0 0 0 11.845-4.906 16.64 16.64 0 0 0 4.906-11.845c0-4.474-1.742-8.68-4.906-11.843a16.64 16.64 0 0 0-11.845-4.906zM417.49 395.481c-8.603 0-16.69-3.349-22.772-9.432-6.082-6.082-9.432-14.168-9.432-22.77 0-8.603 3.35-16.69 9.432-22.772 12.557-12.557 32.986-12.556 45.543 0 6.082 6.083 9.432 14.17 9.432 22.771 0 8.603-3.35 16.69-9.432 22.772-6.082 6.082-14.17 9.431-22.772 9.431zm0-48.945c-4.29 0-8.58 1.632-11.845 4.898a16.64 16.64 0 0 0-4.906 11.844c0 4.475 1.742 8.681 4.906 11.844a16.636 16.636 0 0 0 11.844 4.907 16.64 16.64 0 0 0 11.845-4.906 16.64 16.64 0 0 0 4.906-11.845c0-4.474-1.743-8.681-4.906-11.845a16.701 16.701 0 0 0-11.845-4.897zM311.534 386.368a7.727 7.727 0 0 1-5.463-13.19l115.714-115.716a7.727 7.727 0 0 1 10.927 10.928L316.997 384.105a7.704 7.704 0 0 1-5.463 2.263z" opacity="1" data-original="#d6e0eb" class=""></path><path fill="#ff6699" d="M268.548 421.623c-5.203-5.213-7.603-12.455-9.128-20.315-2.101-10.797-2.575-22.767-6.52-32.266-6.676-15.895-26.116-30.08-26.116-48.243 0-18.234 19.543-32.43 26.115-48.264 6.81-16.41 3.276-40.208 15.649-52.59 4.502-4.503 10.518-6.893 17.132-8.448 11.579-2.73 25.012-2.874 35.458-7.211 6.47-2.679 12.661-7.52 18.956-12.311L203.687 55.579l-72.473 16.617-15.113 3.461-51.416 11.785a43.545 43.545 0 0 0-12.64 5.08c.257.648.505 1.308.772 1.957A106 106 0 0 0 54.775 99c4.254 9.251 9.632 17.472 15.772 24.117.402-.443.814-.886 1.236-1.309 11.991-11.99 31.43-11.99 43.422 0a30.775 30.775 0 0 1 2.39 2.69 30.566 30.566 0 0 1 6.593 18.645c.103 7.984-2.894 15.999-8.983 22.087-11.991 11.992-31.43 11.992-43.422 0-7.458-7.458-10.281-17.79-8.447-27.423-8.984-8.499-16.772-19.646-22.603-32.358-.319-.7-.628-1.38-.916-2.05a43.567 43.567 0 0 0-7.954 16.864L0 259.267l236.138 236.148c9.169 9.158 24.034 9.158 33.203 0l56.052-56.063a40.386 40.386 0 0 0-4.255-2.07c-16.42-6.81-40.208-3.287-52.59-15.66z" opacity="1" data-original="#ee9d2b" class=""></path><path fill="#ff6699" d="M321.138 437.282c-8.18-3.4-18.182-4.214-27.69-5.718l-17.988 17.987c-9.168 9.158-24.034 9.158-33.203 0L9.694 216.977 0 259.267l236.138 236.148c9.169 9.158 24.034 9.158 33.203 0l56.052-56.063a40.386 40.386 0 0 0-4.255-2.07z" opacity="1" data-original="#dd8a26" class=""></path><path fill="#d6e0eb" d="M252.9 272.533c-6.573 15.834-26.116 30.03-26.116 48.264 0 18.164 19.436 32.35 26.115 48.244 3.946 9.498 4.42 21.469 6.521 32.265l-21.726 21.727L91.16 276.5l129.761-129.762 64.758 64.757c-6.614 1.556-12.63 3.946-17.132 8.448-12.373 12.382-8.84 36.18-15.649 52.59z" opacity="1" data-original="#d6e0eb" class=""></path><path fill="#494848" d="M117.595 124.498a30.566 30.566 0 0 1 6.593 18.646c-6.428 7.2-15.21 11.332-25.105 11.332-13.352 0-26.225-7.512-35.747-16.668-10.85-10.265-19.253-23.702-24.848-37.55-15.845-39.198-8.561-77.892 16.606-88.07C83.982.512 118.45 31.819 131.214 72.196l-15.113 3.461c-11.26-33.433-37.619-56.269-55.217-49.14-17.45 7.06-19.61 39.998-8.067 67.962 4.285 10.523 10.215 20.506 17.73 28.639 16.51 18.07 38.569 23.513 47.048 1.38z" opacity="1" data-original="#494848" class=""></path></g></svg>