<svg xmlns="http://www.w3.org/2000/svg" version="1.1" xmlns:xlink="http://www.w3.org/1999/xlink" width="512" height="512" x="0" y="0" viewBox="0 0 1707 1707" style="enable-background:new 0 0 512 512" xml:space="preserve" fill-rule="evenodd" class=""><g><path fill="#e7176c" d="M1569 1488H748c-26 0-26-40 0-40h822v-79h-512c-26 0-26-40 0-40h512v-80h-336c-23 0-46-7-65-20-31-22-51-58-51-96V986c0-64 52-116 116-116h336V650c0-64-52-117-117-117H157c-64 0-117 53-117 117v818c0 65 53 118 117 118h1296c58 0 106-42 116-98zM349 493c11-41-15-72 14-79l755-203c10-2 22 4 24 15 15 55 73 88 128 73 11-3 22 4 24 14l49 180h43l-97-360c-2-9-11-14-19-11L186 412c-8 2-13 11-11 19l17 62zm952 0-40-151c-64 8-126-29-151-87L391 448c2 15 2 30-1 45zm-1151 0-13-51c-8-30 9-61 39-69L1260 83c29-8 60 10 68 39l99 371h26c87 0 157 71 157 157v222c55 9 97 57 97 114v147c0 57-42 104-97 114v221c0 87-70 158-157 158H157c-86 0-157-71-157-158V650c0-84 67-153 150-157zm1084 417c-42 0-76 34-76 76 0 26-3 141 2 162 3 17 13 32 26 43 14 11 30 18 48 18h356c42 0 77-34 77-76V986c0-42-35-76-77-76zm-882 470c-69-13-89-91-49-91 31 0 5 36 49 50v-65c-91-18-91-126 0-143 0-14 0-34 20-34s20 20 20 34c69 13 88 91 49 91-31 0-6-36-49-50v65c91 18 91 126 0 143 0 14 0 34-20 34s-20-20-20-34zm40-41c38-12 38-49 0-60zm-40-167c-38 12-38 49 0 61zm20 328c-135 0-245-110-245-244 0-135 110-245 245-245s244 110 244 245c0 134-109 244-244 244zm0-449c-113 0-205 92-205 205 0 112 92 204 205 204s204-92 204-204c0-113-91-205-204-205zm963 101c-50 0-92-42-92-93 0-50 42-92 92-92 51 0 93 42 93 92 0 51-42 93-93 93zm0-145c-68 0-68 105 0 105 69 0 69-105 0-105zm-665 50c-16 0-57 2-61-20-2-8 2-16 8-20 2-1 144-95 197-258l-50-13c-17-4-20-28-5-37l181-104c10-6 22-2 28 7l104 181c9 15-6 34-22 30l-53-15c-61 116-179 249-327 249zm188-306c-35 130-122 220-175 266 178-11 277-231 288-245 11-13 29-4 42 0l-70-122-122 70c18 5 25 2 35 16 2 6 3 8 2 15z" opacity="1" data-original="#4682bf" class=""></path><path fill="#ff6699" d="M1058 1329h512v-80h-336c-64 0-116-52-116-116V986c0-64 52-116 116-116h336V650c0-64-52-117-117-117H157c-64 0-117 53-117 117v818c0 65 53 118 117 118h1296c58 0 106-42 116-98H748c-26 0-26-40 0-40h822v-79h-512c-26 0-26-40 0-40zm-686-318c135 0 244 110 244 245 0 134-109 244-244 244s-245-110-245-244c0-135 110-245 245-245zm625-203c-70 132-203 275-372 245-18-3-23-27-8-36 2-1 144-95 197-258l-50-13c-17-5-20-28-5-37l181-104c10-6 22-2 28 7l104 181c9 16-5 34-22 30z" opacity="1" data-original="#77b5fe" class=""></path><path fill="#ff6699" d="M1234 1209h356c42 0 77-34 77-76V986c0-42-35-76-77-76h-356c-42 0-76 34-76 76v147c0 42 34 75 76 76zm194-150c0 51-42 93-93 93-50 0-92-42-92-93 0-50 42-92 92-92 51 0 93 42 93 92z" opacity="1" data-original="#77b5fe" class=""></path><g fill="#eaeaea"><path d="M1335 1112c69 0 69-105 0-105-68 0-68 105 0 105zM576 1256c0-113-91-205-204-205s-205 92-205 205c0 112 92 204 205 204s204-92 204-204zm-184-19c91 18 91 126 0 143v14c0 26-40 26-40 0v-14c-73-14-87-91-49-91 32 0 3 36 49 50v-65c-92-18-92-126 0-143v-14c0-26 40-26 40 0v14c72 14 86 91 49 91-32 0-4-36-49-50z" fill="#eaeaea" opacity="1" data-original="#eaeaea" class=""></path><path d="M392 1339c38-12 38-48 0-60zM352 1233v-61c-39 12-39 49 0 61zM390 493h911l-40-151c-65 8-126-28-151-87L391 448c2 15 2 30-1 45z" fill="#eaeaea" opacity="1" data-original="#eaeaea" class=""></path></g><path fill="#ff6699" d="M1142 226c15 55 73 88 128 73 11-3 22 4 24 14l49 180h43l-97-360c-2-9-11-14-19-11L186 412c-8 2-13 11-11 19l17 62h157c12-42-14-72 14-79l755-203c11-2 21 4 24 15z" opacity="1" data-original="#77b5fe" class=""></path><path fill="#eaeaea" d="m1013 772-70-122-122 70c18 5 25 2 35 16 2 6 3 8 2 15-35 130-122 220-175 266 178-11 277-231 288-245 11-13 29-4 42 0z" opacity="1" data-original="#eaeaea" class=""></path></g></svg>